<svg width="723" height="723" viewBox="0 0 723 723" fill="none" xmlns="http://www.w3.org/2000/svg">
<g clip-path="url(#clip0_2039_368)">
<path d="M267.046 216.32C269.321 214.045 273.01 214.045 275.285 216.32C281.618 222.653 293.661 234.695 300.003 241.028C302.278 243.303 302.278 246.993 300.003 249.268C297.728 251.543 294.039 251.543 291.764 249.268C285.316 242.82 273.493 230.997 267.046 224.55C264.771 222.275 264.771 218.586 267.046 216.311V216.32Z" fill="#4771FF"/>
<path d="M308.233 257.516C310.508 255.241 314.198 255.241 316.473 257.516C319.002 260.046 322.182 263.217 324.712 265.755C326.987 268.03 326.987 271.719 324.712 273.994C322.437 276.269 318.748 276.269 316.473 273.994C313.943 271.465 310.763 268.294 308.233 265.755C305.958 263.48 305.958 259.791 308.233 257.516Z" fill="#4771FF"/>
<path d="M332.943 282.225C335.218 279.95 338.907 279.95 341.182 282.225C345.785 286.828 353.058 294.101 357.652 298.703C359.927 300.978 359.927 304.668 357.652 306.943C355.377 309.218 351.687 309.218 349.412 306.943C344.81 302.349 337.537 295.067 332.934 290.473C330.659 288.198 330.659 284.509 332.934 282.234L332.943 282.225Z" fill="#4771FF"/>
<path d="M365.865 315.208L365.901 315.173C368.176 312.898 371.865 312.898 374.14 315.173C378.751 319.785 385.998 327.031 390.618 331.652C396.951 337.985 408.994 350.027 415.327 356.36C417.602 358.636 417.602 362.325 415.327 364.6C413.052 366.875 409.363 366.875 407.088 364.6C400.755 358.267 388.712 346.224 382.379 339.891C377.75 335.262 370.486 327.997 365.865 323.386C363.608 321.129 363.608 317.474 365.865 315.217V315.208Z" fill="#4771FF"/>
<path d="M267.478 182.932L267.513 182.897C269.77 180.64 273.424 180.64 275.682 182.897C280.276 187.491 287.575 194.79 292.187 199.402C294.462 201.677 294.462 205.366 292.187 207.641C289.912 209.916 286.222 209.916 283.947 207.641C279.345 203.039 272.072 195.766 267.469 191.163C265.194 188.888 265.194 185.199 267.469 182.924L267.478 182.932Z" fill="#4771FF"/>
<path d="M300.433 215.889C302.708 213.614 306.397 213.614 308.672 215.889C320.653 227.871 354.348 261.565 366.329 273.546C368.604 275.822 368.604 279.511 366.329 281.786C364.054 284.061 360.365 284.061 358.09 281.786C346.109 269.805 312.414 236.11 300.433 224.129C298.158 221.854 298.158 218.164 300.433 215.889Z" fill="#4771FF"/>
<path d="M374.568 290.025C376.844 287.75 380.533 287.75 382.808 290.025C389.141 296.358 401.184 308.4 407.517 314.734C410.046 317.263 413.217 320.434 415.747 322.964C418.022 325.239 418.022 328.928 415.747 331.203C413.472 333.478 409.783 333.478 407.508 331.203C404.978 328.674 401.798 325.494 399.269 322.964C392.935 316.631 380.893 304.597 374.56 298.255C372.285 295.98 372.285 292.291 374.56 290.016L374.568 290.025Z" fill="#4771FF"/>
<path d="M208.951 192.041C211.226 189.766 214.916 189.766 217.191 192.041C229.058 203.908 262.796 237.638 274.856 249.707C277.131 251.982 277.131 255.671 274.856 257.946L274.821 257.982C272.564 260.239 268.91 260.239 266.652 257.982C254.812 246.132 220.81 212.139 208.96 200.28C206.685 198.005 206.685 194.316 208.96 192.041H208.951Z" fill="#4771FF"/>
<path d="M283.051 266.212L283.086 266.176C285.361 263.901 289.05 263.901 291.325 266.176C295.928 270.779 303.201 278.052 307.804 282.655C310.079 284.93 310.079 288.619 307.804 290.894C305.529 293.169 301.84 293.169 299.565 290.894C294.953 286.283 287.654 278.983 283.06 274.389C280.802 272.132 280.802 268.478 283.06 266.212H283.051Z" fill="#4771FF"/>
<path d="M316.043 299.134C318.318 296.858 322.007 296.858 324.282 299.134C332.504 307.346 349.185 324.036 357.239 332.082C359.514 334.357 359.514 338.046 357.239 340.321C354.964 342.596 351.275 342.596 349 340.321C340.928 332.249 324.124 315.445 316.043 307.364C313.768 305.089 313.768 301.4 316.043 299.125V299.134Z" fill="#4771FF"/>
<path d="M365.459 348.56C366.882 347.137 368.859 346.602 370.694 346.962C371.801 347.172 372.846 347.708 373.698 348.56C385.574 360.427 419.304 394.166 431.364 406.226C433.639 408.501 433.639 412.19 431.364 414.465L431.329 414.501C429.072 416.758 425.418 416.758 423.151 414.501C411.311 402.66 377.317 368.667 365.459 356.808C365.178 356.527 364.923 356.22 364.713 355.895C363.219 353.629 363.465 350.563 365.459 348.569V348.56Z" fill="#4771FF"/>
<path d="M241.468 258.377L241.503 258.342C243.76 256.084 247.414 256.084 249.672 258.342C254.283 262.962 261.548 270.226 266.177 274.846C268.452 277.121 268.452 280.811 266.177 283.086C263.902 285.361 260.213 285.361 257.938 283.086C253.317 278.465 246.079 271.227 241.459 266.607C239.184 264.332 239.184 260.643 241.459 258.368L241.468 258.377Z" fill="#4771FF"/>
<path d="M274.416 291.334C276.691 289.059 280.38 289.059 282.646 291.334C285.176 293.863 288.356 297.043 290.886 299.573C293.161 301.848 293.161 305.537 290.886 307.812C288.611 310.087 284.921 310.087 282.646 307.812C280.117 305.282 276.937 302.111 274.407 299.573C272.132 297.298 272.132 293.609 274.407 291.334H274.416Z" fill="#4771FF"/>
<path d="M299.133 316.043C301.408 313.768 305.097 313.768 307.372 316.043C320.39 329.052 339.96 348.631 356.799 365.469C364.696 373.366 381.85 390.512 389.747 398.418C392.022 400.693 392.022 404.382 389.747 406.657C387.472 408.932 383.783 408.932 381.508 406.657C373.602 398.76 356.456 381.605 348.56 373.709C336.64 361.789 311.861 337.01 299.133 324.282C296.858 322.007 296.858 318.318 299.133 316.043Z" fill="#4771FF"/>
<path d="M216.318 267.046C218.593 264.771 222.283 264.771 224.558 267.046C229.16 271.649 236.433 278.922 241.036 283.525C243.311 285.8 243.311 289.489 241.036 291.764C238.761 294.039 235.072 294.039 232.797 291.764C228.194 287.161 220.921 279.888 216.318 275.294C214.043 273.019 214.043 269.33 216.318 267.055V267.046Z" fill="#4771FF"/>
<path d="M249.268 300.003C251.543 297.728 255.232 297.728 257.507 300.003C270.56 313.065 310.324 352.82 323.403 365.908C325.678 368.183 325.678 371.873 323.403 374.148C321.128 376.423 317.439 376.423 315.164 374.148C302.032 361.016 262.391 321.374 249.268 308.251C246.993 305.976 246.993 302.287 249.268 300.012V300.003Z" fill="#4771FF"/>
<path d="M331.643 382.378C331.643 382.378 331.643 382.378 331.651 382.369L331.678 382.343C333.935 380.086 337.598 380.094 339.847 382.343C346.285 388.782 358.126 400.622 364.591 407.087C366.866 409.362 366.866 413.051 364.591 415.326C362.316 417.601 358.627 417.601 356.352 415.326C350.01 408.984 337.976 396.951 331.634 390.617C329.359 388.342 329.359 384.653 331.634 382.378H331.643Z" fill="#4771FF"/>
<path d="M207.633 292.212L207.65 292.195C209.925 289.92 213.615 289.92 215.89 292.195C222.232 298.528 234.266 310.57 240.599 316.903C242.874 319.179 242.874 322.868 240.599 325.143L240.564 325.178C238.306 327.435 234.652 327.435 232.395 325.178C226.061 318.845 213.975 306.758 207.633 300.416C205.367 298.15 205.367 294.478 207.633 292.212Z" fill="#4771FF"/>
<path d="M248.838 333.382C251.113 331.107 254.802 331.107 257.077 333.382C261.68 337.985 268.953 345.258 273.556 349.861C275.831 352.136 275.831 355.825 273.556 358.1C271.281 360.375 267.591 360.375 265.325 358.1C260.722 353.497 253.449 346.224 248.847 341.621C246.572 339.346 246.572 335.657 248.847 333.382H248.838Z" fill="#4771FF"/>
<path d="M281.784 366.339L281.819 366.303C284.077 364.046 287.731 364.046 289.988 366.303C294.6 370.924 301.873 378.188 306.493 382.808C308.768 385.083 308.768 388.773 306.493 391.048C304.218 393.323 300.529 393.323 298.263 391.048C293.642 386.427 286.396 379.189 281.784 374.569C279.509 372.294 279.509 368.605 281.784 366.33V366.339Z" fill="#4771FF"/>
<path d="M314.733 399.287C317.009 397.012 320.698 397.012 322.973 399.287C330.878 407.183 348.024 424.338 355.921 432.235C358.196 434.51 358.196 438.199 355.921 440.474C353.646 442.749 349.957 442.749 347.682 440.474C339.785 432.578 322.63 415.423 314.733 407.517C312.458 405.242 312.458 401.553 314.733 399.278V399.287Z" fill="#4771FF"/>
<path d="M69.3399 18.613C71.6149 16.338 75.3042 16.338 77.5792 18.613C83.9211 24.9461 95.955 36.9888 102.288 43.3307C104.563 45.6057 104.563 49.295 102.288 51.57C100.013 53.845 96.3239 53.845 94.0489 51.57C87.7069 45.2368 75.6731 33.1942 69.3399 26.861C67.0649 24.586 67.0649 20.8968 69.3399 18.6218V18.613Z" fill="#4771FF"/>
<path d="M110.528 59.8093C112.803 57.5343 116.493 57.5343 118.768 59.8093C125.101 66.1424 137.143 78.1851 143.485 84.527C145.76 86.802 145.76 90.4912 143.485 92.7663C141.21 95.0413 137.521 95.0413 135.246 92.7663C128.799 86.3189 116.976 74.4959 110.537 68.0485C108.262 65.7735 108.262 62.0843 110.537 59.8093H110.528Z" fill="#4771FF"/>
<path d="M151.714 100.997C153.989 98.7218 157.678 98.7218 159.953 100.997C162.483 103.527 165.663 106.706 168.192 109.236C170.467 111.511 170.467 115.2 168.192 117.475C165.917 119.75 162.228 119.75 159.953 117.475C157.423 114.946 154.244 111.766 151.714 109.236C149.439 106.961 149.439 103.272 151.714 100.997Z" fill="#4771FF"/>
<path d="M176.432 125.705C178.707 123.43 182.396 123.43 184.671 125.705C189.274 130.308 196.547 137.581 201.149 142.175C203.424 144.45 203.424 148.139 201.149 150.414C198.874 152.689 195.185 152.689 192.91 150.414C188.307 145.811 181.034 138.538 176.432 133.936C174.157 131.661 174.157 127.972 176.432 125.697V125.705Z" fill="#4771FF"/>
<path d="M209.344 158.689L209.379 158.654C211.654 156.379 215.343 156.379 217.618 158.654C222.23 163.256 229.441 170.477 234.062 175.097C234.07 175.106 234.088 175.123 234.097 175.132C240.43 181.465 252.473 193.508 258.806 199.841C261.081 202.116 261.081 205.805 258.806 208.08C256.531 210.355 252.841 210.355 250.566 208.08C244.233 201.747 232.191 189.704 225.858 183.371C221.228 178.742 213.964 171.478 209.353 166.866C207.095 164.609 207.095 160.955 209.353 158.697L209.344 158.689Z" fill="#4771FF"/>
<path d="M86.2481 1.70431C88.5231 -0.570707 92.2036 -0.570707 94.4786 1.70431C97.0083 4.23405 100.188 7.40502 102.718 9.94355C104.993 12.2186 104.993 15.9078 102.718 18.1828C100.443 20.4578 96.7536 20.4578 94.4786 18.1828C91.9488 15.653 88.7691 12.4821 86.2393 9.94355C83.9643 7.66853 83.9643 3.97932 86.2393 1.70431H86.2481Z" fill="#4771FF"/>
<path d="M110.966 26.4216L111.001 26.3864C113.258 24.129 116.913 24.129 119.17 26.3864C123.773 30.9804 131.072 38.2798 135.675 42.8913C137.95 45.1663 137.95 48.8555 135.675 51.1305C133.4 53.4055 129.711 53.4055 127.436 51.1305C122.833 46.5366 115.56 39.2548 110.966 34.652C108.691 32.377 108.691 28.6878 110.966 26.4128V26.4216Z" fill="#4771FF"/>
<path d="M143.915 59.37C146.19 57.0949 149.879 57.0949 152.154 59.37C164.144 71.3511 197.83 105.046 209.82 117.027C212.095 119.302 212.095 122.991 209.82 125.266C207.545 127.541 203.855 127.541 201.58 125.266C189.599 113.285 155.904 79.5904 143.915 67.6004C141.639 65.3254 141.639 61.6362 143.915 59.3612V59.37Z" fill="#4771FF"/>
<path d="M218.059 133.514C220.334 131.239 224.023 131.239 226.298 133.514C232.631 139.848 244.683 151.89 251.007 158.223C253.537 160.762 256.708 163.933 259.238 166.463C261.513 168.738 261.513 172.427 259.238 174.702C256.963 176.977 253.273 176.977 251.007 174.702C248.477 172.172 245.306 168.992 242.768 166.463C236.426 160.121 224.392 148.087 218.059 141.754C215.784 139.479 215.784 135.789 218.059 133.514Z" fill="#4771FF"/>
<path d="M52.4298 35.5305C54.7048 33.2555 58.3941 33.2555 60.6691 35.5305C72.536 47.3974 106.275 81.1274 118.335 93.1876C120.61 95.4626 120.61 99.1518 118.335 101.427L118.3 101.462C116.042 103.719 112.388 103.719 110.131 101.462C98.2815 89.6214 64.288 55.6191 52.4298 43.7697C50.1548 41.4947 50.1548 37.8055 52.4298 35.5393V35.5305Z" fill="#4771FF"/>
<path d="M126.539 109.701L126.574 109.666C128.849 107.391 132.539 107.391 134.814 109.666C139.416 114.269 146.689 121.542 151.292 126.145C153.567 128.42 153.567 132.109 151.292 134.384C149.017 136.659 145.328 136.659 143.053 134.384C138.441 129.772 131.142 122.473 126.548 117.879C124.291 115.622 124.291 111.959 126.548 109.71L126.539 109.701Z" fill="#4771FF"/>
<path d="M159.524 142.614C161.799 140.339 165.488 140.339 167.763 142.614C175.984 150.836 192.665 167.517 200.72 175.571C202.995 177.846 202.995 181.536 200.72 183.811C198.445 186.086 194.756 186.086 192.481 183.811C184.408 175.738 167.605 158.935 159.524 150.854C157.249 148.579 157.249 144.889 159.524 142.614Z" fill="#4771FF"/>
<path d="M35.5216 52.4397C37.7966 50.1646 41.477 50.1646 43.752 52.4397C51.6487 60.3451 68.8036 77.4912 76.7002 85.3966C78.9752 87.6716 78.9752 91.3609 76.7002 93.6359C74.4252 95.9109 70.736 95.9109 68.461 93.6359C60.5643 85.7392 43.4095 68.5844 35.5128 60.6877C33.2378 58.4127 33.2378 54.7235 35.5128 52.4484L35.5216 52.4397Z" fill="#4771FF"/>
<path d="M84.9483 101.866L84.9834 101.831C87.2409 99.5738 90.8949 99.5738 93.1524 101.831C97.7639 106.443 105.037 113.716 109.657 118.336C111.932 120.611 111.932 124.3 109.657 126.575C107.382 128.85 103.693 128.85 101.418 126.575C96.7977 121.955 89.5598 114.717 84.9395 110.097C82.6645 107.822 82.6645 104.133 84.9395 101.858L84.9483 101.866Z" fill="#4771FF"/>
<path d="M117.898 134.814C120.173 132.539 123.862 132.539 126.137 134.814C128.667 137.344 131.837 140.515 134.376 143.053C136.651 145.328 136.651 149.018 134.376 151.293C132.101 153.568 128.412 153.568 126.137 151.293C123.607 148.763 120.427 145.583 117.898 143.053C115.623 140.778 115.623 137.089 117.898 134.814Z" fill="#4771FF"/>
<path d="M142.613 159.523C144.888 157.248 148.578 157.248 150.853 159.523C163.87 172.532 183.441 192.111 200.279 208.95C208.176 216.846 225.331 234.001 233.228 241.898C235.503 244.173 235.503 247.862 233.228 250.137C230.953 252.412 227.263 252.412 224.988 250.137C217.092 242.241 199.937 225.086 192.04 217.189C180.12 205.269 155.341 180.49 142.613 167.762C140.338 165.487 140.338 161.798 142.613 159.523Z" fill="#4771FF"/>
<path d="M18.6134 69.3483L18.6485 69.3132C20.9059 67.0558 24.5601 67.0558 26.8175 69.3132C33.2561 75.7518 45.0967 87.5924 51.5616 94.0573C53.8366 96.3323 53.8366 100.022 51.5616 102.297C49.2865 104.572 45.6061 104.572 43.3223 102.297C36.9892 95.9634 24.9465 83.9207 18.6134 77.5876C16.3384 75.3126 16.3384 71.6233 18.6134 69.3571V69.3483Z" fill="#4771FF"/>
<path d="M59.7999 110.536C62.0749 108.261 65.7641 108.261 68.0391 110.536C72.6419 115.13 79.9061 122.412 84.5088 127.006C86.7838 129.281 86.7838 132.97 84.5088 135.245C82.2338 137.52 78.5446 137.52 76.2696 135.245C71.6668 130.651 64.3938 123.369 59.7999 118.775C57.5249 116.5 57.5249 112.811 59.7999 110.536Z" fill="#4771FF"/>
<path d="M92.7483 143.484C95.0233 141.209 98.7125 141.209 100.988 143.484C114.04 156.537 153.805 196.301 166.884 209.38C169.159 211.655 169.159 215.345 166.884 217.62C164.609 219.895 160.92 219.895 158.645 217.62C145.513 204.488 105.871 164.855 92.7483 151.723C90.4732 149.448 90.4732 145.759 92.7483 143.484Z" fill="#4771FF"/>
<path d="M173.717 228.231C173.761 228.081 173.787 227.932 173.848 227.792C173.848 227.774 173.866 227.765 173.875 227.748C174.156 227.062 174.578 226.421 175.131 225.868L175.166 225.833C177.424 223.575 181.086 223.575 183.335 225.833C189.774 232.271 201.623 244.112 208.079 250.577C210.354 252.852 210.354 256.541 208.079 258.816C205.804 261.091 202.115 261.091 199.84 258.816C193.507 252.483 181.464 240.44 175.131 234.107C173.541 232.517 173.084 230.242 173.717 228.239V228.231Z" fill="#4771FF"/>
<path d="M1.70396 86.2573C3.97897 83.9823 7.66819 83.9823 9.9432 86.2573C17.8487 94.1627 34.9947 111.309 42.8914 119.205C45.1664 121.48 45.1664 125.17 42.8914 127.445C40.6164 129.72 36.9272 129.72 34.6521 127.445C26.7555 119.548 9.60063 102.393 1.70396 94.4965C-0.571055 92.2215 -0.571055 88.5323 1.70396 86.2573Z" fill="#4771FF"/>
<path d="M51.1131 135.701L51.1307 135.684C53.4057 133.409 57.0949 133.409 59.37 135.684C65.7031 142.017 77.7457 154.06 84.0789 160.393C86.3539 162.668 86.3539 166.357 84.0789 168.632L84.0437 168.667C81.7863 170.925 78.1234 170.925 75.8748 168.667C69.5416 162.334 57.4551 150.248 51.1131 143.906C48.8469 141.639 48.8469 137.968 51.1131 135.701Z" fill="#4771FF"/>
<path d="M92.3185 176.871C94.5935 174.596 98.2827 174.596 100.558 176.871C105.16 181.465 112.433 188.747 117.036 193.35C119.311 195.625 119.311 199.314 117.036 201.589C114.761 203.864 111.072 203.864 108.797 201.589C104.194 196.986 96.9212 189.713 92.3185 185.111C90.0435 182.836 90.0435 179.146 92.3185 176.871Z" fill="#4771FF"/>
<path d="M125.267 209.82L125.302 209.784C127.559 207.527 131.213 207.527 133.471 209.784C138.082 214.396 145.355 221.669 149.976 226.289C152.251 228.564 152.251 232.253 149.976 234.528C147.701 236.803 144.011 236.803 141.736 234.528C137.116 229.908 129.878 222.67 125.258 218.05C122.983 215.775 122.983 212.086 125.258 209.811L125.267 209.82Z" fill="#4771FF"/>
<path d="M157.477 243.681C157.688 243.356 157.943 243.058 158.224 242.768C160.499 240.493 164.188 240.493 166.463 242.768C174.36 250.664 191.514 267.819 199.411 275.716C201.686 277.991 201.686 281.68 199.411 283.955C197.136 286.23 193.447 286.23 191.172 283.955C183.275 276.059 166.12 258.904 158.224 251.007C157.653 250.436 157.231 249.786 156.941 249.083C156.23 247.335 156.405 245.306 157.477 243.681Z" fill="#4771FF"/>
<path d="M580.075 529.358C582.35 527.083 586.04 527.083 588.315 529.358C594.648 535.7 606.69 547.743 613.032 554.076C615.307 556.351 615.307 560.04 613.032 562.315C610.757 564.59 607.068 564.59 604.793 562.315C598.346 555.868 586.523 544.053 580.075 537.597C577.8 535.322 577.8 531.633 580.075 529.358Z" fill="#4771FF"/>
<path d="M621.265 570.546C623.54 568.271 627.229 568.271 629.504 570.546C632.034 573.075 635.213 576.255 637.743 578.785C640.018 581.06 640.018 584.749 637.743 587.024C635.468 589.299 631.779 589.299 629.504 587.024C626.974 584.494 623.794 581.315 621.265 578.785C618.99 576.51 618.99 572.821 621.265 570.546Z" fill="#4771FF"/>
<path d="M645.982 595.255C648.257 592.98 651.946 592.98 654.221 595.255C658.824 599.857 666.097 607.13 670.69 611.724C672.965 613.999 672.965 617.689 670.69 619.964C668.415 622.239 664.726 622.239 662.451 619.964C657.857 615.37 650.575 608.088 645.982 603.494C643.707 601.219 643.707 597.53 645.982 595.255Z" fill="#4771FF"/>
<path d="M678.903 628.238L678.939 628.203C681.214 625.928 684.903 625.928 687.178 628.203C691.789 632.814 699.036 640.061 703.647 644.673C705.923 646.948 705.923 650.637 703.647 652.912C701.372 655.187 697.683 655.187 695.408 652.912C690.779 648.283 683.515 641.018 678.903 636.407C676.646 634.15 676.646 630.495 678.903 628.238Z" fill="#4771FF"/>
<path d="M580.507 495.971L580.542 495.936C582.8 493.678 586.454 493.678 588.711 495.936C593.305 500.53 600.604 507.829 605.216 512.441C607.491 514.716 607.491 518.405 605.216 520.68C602.941 522.955 599.252 522.955 596.977 520.68C592.383 516.077 585.101 508.804 580.498 504.201C578.223 501.926 578.223 498.237 580.498 495.962L580.507 495.971Z" fill="#4771FF"/>
<path d="M613.464 528.919C615.739 526.644 619.428 526.644 621.703 528.919C633.684 540.9 667.379 574.595 679.36 586.585C681.635 588.86 681.635 592.549 679.36 594.824C677.085 597.099 673.396 597.099 671.121 594.824C659.14 582.843 625.445 549.148 613.464 537.158C611.189 534.883 611.189 531.194 613.464 528.919Z" fill="#4771FF"/>
<path d="M687.6 603.063C689.875 600.788 693.564 600.788 695.839 603.063C702.172 609.396 714.215 621.439 720.548 627.772C722.823 630.047 722.823 633.736 720.548 636.011C718.273 638.286 714.584 638.286 712.309 636.011C705.967 629.669 693.933 617.636 687.6 611.294C685.325 609.019 685.325 605.329 687.6 603.054V603.063Z" fill="#4771FF"/>
<path d="M521.979 505.071C524.254 502.796 527.943 502.796 530.218 505.071C542.085 516.937 575.824 550.676 587.884 562.736C590.159 565.011 590.159 568.701 587.884 570.976L587.849 571.011C585.591 573.268 581.928 573.268 579.68 571.011C567.839 559.17 533.837 525.168 521.987 513.319C519.712 511.044 519.712 507.354 521.987 505.079L521.979 505.071Z" fill="#4771FF"/>
<path d="M596.089 579.25L596.124 579.215C598.399 576.94 602.088 576.94 604.363 579.215C608.957 583.809 616.239 591.091 620.833 595.694C623.108 597.969 623.108 601.658 620.833 603.933C618.558 606.208 614.869 606.208 612.594 603.933C607.982 599.321 600.683 592.022 596.089 587.428C593.832 585.171 593.832 581.508 596.089 579.25Z" fill="#4771FF"/>
<path d="M629.072 612.163C631.347 609.888 635.036 609.888 637.311 612.163C645.533 620.385 662.214 637.065 670.268 645.12C672.543 647.395 672.543 651.085 670.268 653.36C667.993 655.635 664.304 655.635 662.029 653.36C653.957 645.287 637.153 628.484 629.081 620.403C626.806 618.128 626.806 614.438 629.081 612.163H629.072Z" fill="#4771FF"/>
<path d="M678.498 661.59C680.773 659.315 684.462 659.315 686.737 661.59C689.012 663.865 689.012 667.554 686.737 669.829C684.462 672.104 680.773 672.104 678.498 669.829C676.223 667.554 676.223 663.865 678.498 661.59Z" fill="#4771FF"/>
<path d="M554.497 571.415L554.532 571.38C556.79 569.123 560.444 569.123 562.701 571.38C567.313 576 574.577 583.265 579.206 587.885C581.481 590.16 581.481 593.849 579.206 596.124C576.931 598.399 573.242 598.399 570.967 596.124C566.347 591.513 559.109 584.266 554.488 579.646C552.213 577.371 552.213 573.681 554.488 571.406L554.497 571.415Z" fill="#4771FF"/>
<path d="M587.453 604.363C589.728 602.088 593.417 602.088 595.684 604.363C598.213 606.893 601.393 610.073 603.923 612.603C606.198 614.878 606.198 618.567 603.923 620.842C601.648 623.117 597.959 623.117 595.684 620.842C593.154 618.303 589.974 615.132 587.444 612.603C585.169 610.328 585.169 606.639 587.444 604.363H587.453Z" fill="#4771FF"/>
<path d="M612.164 629.072C614.439 626.797 618.128 626.797 620.403 629.072C633.429 642.099 653.017 661.678 669.856 678.525C672.113 680.783 672.113 684.446 669.856 686.694L669.821 686.73C667.546 689.005 663.857 689.005 661.582 686.73C649.662 674.81 624.883 650.031 612.155 637.303C609.88 635.028 609.88 631.339 612.155 629.064L612.164 629.072Z" fill="#4771FF"/>
<path d="M529.35 580.085C531.625 577.81 535.314 577.81 537.589 580.085C542.192 584.679 549.465 591.96 554.067 596.563C556.342 598.838 556.342 602.527 554.067 604.802C551.792 607.077 548.103 607.077 545.828 604.802C541.225 600.2 533.952 592.927 529.35 588.324C527.075 586.049 527.075 582.368 529.35 580.085Z" fill="#4771FF"/>
<path d="M562.297 613.033C564.572 610.758 568.261 610.758 570.536 613.033C583.589 626.086 623.354 665.85 636.433 678.929C638.708 681.204 638.708 684.894 636.433 687.169C634.158 689.444 630.468 689.444 628.193 687.169C615.062 674.037 575.42 634.395 562.297 621.272C560.022 618.997 560.022 615.308 562.297 613.033Z" fill="#4771FF"/>
<path d="M644.68 695.408C646.955 693.133 650.644 693.133 652.919 695.408C655.194 697.683 655.194 701.372 652.919 703.647C650.644 705.922 646.955 705.922 644.68 703.647C642.405 701.372 642.405 697.683 644.68 695.408Z" fill="#4771FF"/>
<path d="M520.662 605.25L520.68 605.233C522.955 602.958 526.644 602.958 528.919 605.233C535.252 611.566 547.295 623.609 553.628 629.942C555.903 632.217 555.903 635.906 553.628 638.181L553.593 638.216C551.335 640.474 547.673 640.474 545.424 638.216C539.091 631.883 527.004 619.805 520.662 613.455C518.396 611.188 518.396 607.517 520.662 605.25Z" fill="#4771FF"/>
<path d="M561.867 646.42C564.142 644.145 567.831 644.145 570.106 646.42C574.709 651.014 581.982 658.296 586.585 662.899C588.86 665.174 588.86 668.863 586.585 671.138C584.31 673.413 580.621 673.413 578.346 671.138C573.743 666.535 566.47 659.262 561.867 654.66C559.592 652.385 559.592 648.695 561.867 646.42Z" fill="#4771FF"/>
<path d="M594.823 679.368L594.858 679.333C597.116 677.076 600.77 677.076 603.027 679.333C607.639 683.954 614.912 691.218 619.532 695.838C621.807 698.113 621.807 701.802 619.532 704.077C617.257 706.352 613.568 706.352 611.302 704.077C606.682 699.457 599.444 692.219 594.823 687.608C592.548 685.333 592.548 681.643 594.823 679.368Z" fill="#4771FF"/>
<path d="M627.773 712.317C630.049 710.042 633.738 710.042 636.013 712.317C638.288 714.592 638.288 718.281 636.013 720.556C633.738 722.831 630.049 722.831 627.773 720.556C625.498 718.281 625.498 714.592 627.773 712.317Z" fill="#4771FF"/>
<path d="M423.556 372.839C425.831 370.564 429.52 370.564 431.795 372.839C438.128 379.172 450.171 391.215 456.513 397.548C458.788 399.823 458.788 403.512 456.513 405.787C454.238 408.062 450.549 408.062 448.273 405.787C441.826 399.34 430.003 387.517 423.556 381.078C421.281 378.803 421.281 375.114 423.556 372.839Z" fill="#4771FF"/>
<path d="M464.743 414.026C467.018 411.751 470.707 411.751 472.982 414.026C475.512 416.556 478.692 419.736 481.222 422.265C483.497 424.54 483.497 428.23 481.222 430.505C478.947 432.78 475.257 432.78 472.982 430.505C470.453 427.975 467.273 424.795 464.743 422.265C462.468 419.99 462.468 416.301 464.743 414.026Z" fill="#4771FF"/>
<path d="M489.462 438.744C491.737 436.469 495.426 436.469 497.692 438.744C502.295 443.347 509.568 450.62 514.171 455.222C516.446 457.497 516.446 461.187 514.171 463.462C511.896 465.737 508.207 465.737 505.932 463.462C501.329 458.859 494.056 451.586 489.453 446.983C487.178 444.708 487.178 441.019 489.453 438.744H489.462Z" fill="#4771FF"/>
<path d="M522.375 471.727L522.41 471.692C524.685 469.417 528.374 469.417 530.649 471.692C535.261 476.295 542.472 483.515 547.093 488.136C547.101 488.144 547.119 488.153 547.128 488.171C553.461 494.504 565.504 506.547 571.837 512.88C574.112 515.155 574.112 518.844 571.837 521.119C569.562 523.394 565.872 523.394 563.597 521.119L538.889 496.41C534.259 491.781 526.995 484.517 522.384 479.905C520.126 477.648 520.126 473.994 522.384 471.736L522.375 471.727Z" fill="#4771FF"/>
<path d="M423.996 339.451L424.031 339.416C426.289 337.159 429.952 337.159 432.2 339.416C436.803 344.01 444.094 351.31 448.714 355.921C450.989 358.196 450.989 361.885 448.714 364.16C446.439 366.435 442.75 366.435 440.483 364.16C435.881 359.558 428.608 352.285 424.005 347.682C421.73 345.407 421.73 341.718 424.005 339.443L423.996 339.451Z" fill="#4771FF"/>
<path d="M456.945 372.4C459.22 370.125 462.909 370.125 465.184 372.4C477.165 384.39 510.86 418.076 522.841 430.057C525.116 432.332 525.116 436.021 522.841 438.296C520.566 440.571 516.877 440.571 514.61 438.296C502.629 426.315 468.934 392.62 456.945 380.63C454.669 378.355 454.669 374.666 456.945 372.391V372.4Z" fill="#4771FF"/>
<path d="M531.089 446.544C533.364 444.269 537.053 444.269 539.319 446.544C545.653 452.886 557.695 464.929 564.028 471.262C566.558 473.792 569.729 476.963 572.259 479.501C574.534 481.776 574.534 485.465 572.259 487.74C569.984 490.015 566.295 490.015 564.02 487.74C561.49 485.211 558.319 482.04 555.78 479.501C549.447 473.168 537.413 461.125 531.071 454.783C528.805 452.517 528.805 448.819 531.071 446.544H531.089Z" fill="#4771FF"/>
<path d="M439.568 422.731L439.604 422.696C441.879 420.421 445.568 420.421 447.843 422.696C452.446 427.299 459.719 434.572 464.321 439.174C466.596 441.45 466.596 445.139 464.321 447.414C462.046 449.689 458.357 449.689 456.082 447.414C451.471 442.802 444.171 435.503 439.577 430.9C437.32 428.643 437.32 424.989 439.577 422.731H439.568Z" fill="#4771FF"/>
<path d="M472.554 455.653C474.829 453.378 478.518 453.378 480.793 455.653C489.015 463.875 505.695 480.555 513.741 488.601C516.016 490.876 516.016 494.565 513.741 496.84C511.466 499.115 507.777 499.115 505.502 496.84C497.43 488.768 480.626 471.965 472.554 463.883C470.279 461.608 470.279 457.919 472.554 455.644V455.653Z" fill="#4771FF"/>
<path d="M397.987 414.896L398.023 414.861C400.28 412.603 403.934 412.603 406.192 414.861C410.803 419.472 418.076 426.745 422.696 431.365C424.971 433.64 424.971 437.33 422.696 439.605C420.421 441.88 416.732 441.88 414.457 439.605C409.837 434.984 402.599 427.738 397.979 423.126C395.704 420.851 395.704 417.162 397.979 414.887L397.987 414.896Z" fill="#4771FF"/>
<path d="M430.937 447.844C433.212 445.569 436.901 445.569 439.176 447.844C441.706 450.374 444.877 453.545 447.415 456.083C449.69 458.358 449.69 462.047 447.415 464.322C445.14 466.597 441.451 466.597 439.176 464.322C436.646 461.793 433.466 458.613 430.937 456.083C428.662 453.808 428.662 450.119 430.937 447.844Z" fill="#4771FF"/>
<path d="M455.645 472.562C457.92 470.287 461.609 470.287 463.884 472.562C476.902 485.571 496.472 505.15 513.311 521.988C521.207 529.885 538.362 547.04 546.259 554.937C548.534 557.212 548.534 560.901 546.259 563.176C543.984 565.451 540.295 565.451 538.02 563.176C530.114 555.279 512.968 538.124 505.071 530.228C493.152 518.308 468.373 493.52 455.645 480.801C453.37 478.526 453.37 474.837 455.645 472.562Z" fill="#4771FF"/>
<path d="M372.83 423.566C375.105 421.29 378.794 421.29 381.069 423.566C385.672 428.168 392.945 435.441 397.548 440.044C399.823 442.319 399.823 446.008 397.548 448.283C395.273 450.558 391.584 450.558 389.309 448.283C384.715 443.689 377.433 436.407 372.83 431.805C370.555 429.53 370.555 425.841 372.83 423.566Z" fill="#4771FF"/>
<path d="M405.787 456.514C408.062 454.239 411.752 454.239 414.027 456.514C427.079 469.575 466.844 509.331 479.923 522.41C482.198 524.685 482.198 528.374 479.923 530.65C477.648 532.925 473.959 532.925 471.684 530.65C458.552 517.518 418.91 477.876 405.787 464.753C403.512 462.478 403.512 458.789 405.787 456.514Z" fill="#4771FF"/>
<path d="M486.749 541.26C486.793 541.111 486.819 540.961 486.881 540.821C486.881 540.812 486.898 540.795 486.898 540.777C487.179 540.092 487.601 539.451 488.154 538.897L488.19 538.862C490.447 536.605 494.101 536.605 496.359 538.862C502.797 545.301 514.638 557.141 521.103 563.606C523.378 565.881 523.378 569.57 521.103 571.845C518.828 574.12 515.138 574.12 512.863 571.845C506.53 565.512 494.488 553.47 488.154 547.136C486.565 545.547 486.108 543.272 486.74 541.269L486.749 541.26Z" fill="#4771FF"/>
<path d="M364.143 448.731L364.161 448.714C366.436 446.439 370.125 446.439 372.4 448.714C378.733 455.047 390.776 467.089 397.109 473.423C399.384 475.698 399.384 479.387 397.109 481.662L397.074 481.697C394.816 483.954 391.162 483.954 388.905 481.697C382.571 475.364 370.485 463.286 364.143 456.935C361.877 454.669 361.877 450.997 364.143 448.731Z" fill="#4771FF"/>
<path d="M405.348 489.901C407.623 487.626 411.312 487.626 413.587 489.901C418.181 494.495 425.463 501.777 430.066 506.38C432.341 508.655 432.341 512.344 430.066 514.619C427.791 516.894 424.101 516.894 421.826 514.619C417.224 510.016 409.951 502.743 405.348 498.14C403.073 495.865 403.073 492.176 405.348 489.901Z" fill="#4771FF"/>
<path d="M438.306 522.858L438.341 522.823C440.598 520.566 444.252 520.566 446.51 522.823C451.121 527.443 458.394 534.707 463.015 539.328C465.29 541.603 465.29 545.292 463.015 547.567C460.74 549.842 457.05 549.842 454.775 547.567C450.164 542.947 442.917 535.709 438.306 531.097C436.031 528.822 436.031 525.133 438.306 522.858Z" fill="#4771FF"/>
<path d="M470.506 556.711C470.717 556.386 470.972 556.087 471.253 555.797C473.528 553.522 477.217 553.522 479.492 555.797C487.398 563.703 504.544 580.849 512.44 588.746C514.715 591.021 514.715 594.71 512.44 596.985C510.165 599.26 506.476 599.26 504.201 596.985C496.305 589.088 479.15 571.933 471.253 564.037C470.682 563.466 470.26 562.816 469.971 562.113C469.259 560.365 469.444 558.327 470.506 556.711Z" fill="#4771FF"/>
</g>
<defs>
<clipPath id="clip0_2039_368">
<rect width="722.26" height="722.26" fill="white" transform="matrix(-1 0 0 1 722.26 0)"/>
</clipPath>
</defs>
</svg>
