<svg width="29" height="28" viewBox="0 0 29 28" fill="none" xmlns="http://www.w3.org/2000/svg">
<path d="M10.2918 17.1111C10.2918 18.6145 11.5106 19.8333 13.0141 19.8333H15.5418C17.1527 19.8333 18.4585 18.5275 18.4585 16.9166C18.4585 15.3058 17.1527 14 15.5418 14H13.2085C11.5977 14 10.2918 12.6941 10.2918 11.0833C10.2918 9.47248 11.5977 8.16665 13.2085 8.16665H15.7363C17.2397 8.16665 18.4585 9.38543 18.4585 10.8889M14.3752 6.41665V8.16665M14.3752 19.8333V21.5833M26.0418 14C26.0418 20.4433 20.8185 25.6666 14.3752 25.6666C7.93184 25.6666 2.7085 20.4433 2.7085 14C2.7085 7.55666 7.93184 2.33331 14.3752 2.33331C20.8185 2.33331 26.0418 7.55666 26.0418 14Z" stroke="#4771FF" stroke-width="2" stroke-linecap="round" stroke-linejoin="round"/>
</svg>
