<svg width="26" height="26" viewBox="0 0 26 26" fill="none" xmlns="http://www.w3.org/2000/svg">
<path d="M9.62516 13L11.9585 15.3333L17.2085 10.0833M20.0099 4.83157C20.2501 5.4126 20.7112 5.87444 21.2919 6.11556L23.3279 6.95895C23.909 7.19964 24.3706 7.66131 24.6113 8.24238C24.852 8.82346 24.852 9.47635 24.6113 10.0574L23.7686 12.0921C23.5278 12.6734 23.5274 13.327 23.7693 13.908L24.6106 15.9421C24.7299 16.2299 24.7914 16.5384 24.7914 16.8499C24.7915 17.1615 24.7301 17.47 24.6109 17.7578C24.4917 18.0457 24.3169 18.3072 24.0966 18.5274C23.8763 18.7477 23.6147 18.9224 23.3268 19.0415L21.2922 19.8843C20.7112 20.1246 20.2494 20.5857 20.0083 21.1664L19.1649 23.2025C18.9243 23.7836 18.4626 24.2452 17.8816 24.4859C17.3005 24.7266 16.6476 24.7266 16.0666 24.4859L14.032 23.6432C13.4509 23.4031 12.7983 23.4035 12.2176 23.6445L10.1815 24.4867C9.60081 24.7268 8.94851 24.7266 8.36793 24.4861C7.78734 24.2456 7.32596 23.7845 7.08511 23.2041L6.2415 21.1673C6.00126 20.5863 5.54013 20.1245 4.95948 19.8833L2.92344 19.04C2.34264 18.7994 1.88113 18.338 1.64036 17.7573C1.39959 17.1765 1.39926 16.5239 1.63945 15.9429L2.4822 13.9083C2.72229 13.3272 2.7218 12.6745 2.48084 12.0938L1.6393 10.0562C1.51998 9.76843 1.45855 9.45994 1.4585 9.14838C1.45845 8.83683 1.51978 8.52832 1.63901 8.24048C1.75823 7.95265 1.933 7.69112 2.15333 7.47086C2.37365 7.25059 2.63522 7.0759 2.92309 6.95677L4.95768 6.11398C5.53818 5.87395 5.99973 5.41338 6.24102 4.83338L7.08437 2.79726C7.32506 2.21618 7.7867 1.75452 8.36776 1.51383C8.94881 1.27314 9.60168 1.27314 10.1827 1.51383L12.2173 2.35661C12.7984 2.59671 13.451 2.59622 14.0317 2.35525L16.0686 1.51514C16.6496 1.27458 17.3023 1.27463 17.8833 1.51527C18.4642 1.75592 18.9258 2.21745 19.1665 2.79837L20.0101 4.8351L20.0099 4.83157Z" stroke="#4771FF" stroke-width="2" stroke-linecap="round" stroke-linejoin="round"/>
</svg>
